<svg xmlns="http://www.w3.org/2000/svg" version="1.1" xmlns:xlink="http://www.w3.org/1999/xlink" xmlns:svgjs="http://svgjs.dev/svgjs" width="1440" height="560" preserveAspectRatio="none" viewBox="0 0 1440 560"><g mask="url(&quot;#SvgjsMask1049&quot;)" fill="none"><rect width="1440" height="560" x="0" y="0" fill="rgba(69, 123, 157, 1)"></rect><path d="M 0,48 C 57.6,84 172.8,217.6 288,228 C 403.2,238.4 460.8,113.6 576,100 C 691.2,86.4 748.8,165.4 864,160 C 979.2,154.6 1036.8,63.8 1152,73 C 1267.2,82.2 1382.4,179.4 1440,206L1440 560L0 560z" fill="rgba(24, 74, 126, 0.72)"></path><path d="M 0,342 C 96,375.8 288,496.4 480,511 C 672,525.6 768,405.6 960,415 C 1152,424.4 1344,529.4 1440,558L1440 560L0 560z" fill="rgba(34, 100, 171, 0.76)"></path></g><defs><mask id="SvgjsMask1049"><rect width="1440" height="560" fill="#ffffff"></rect></mask></defs></svg>