<svg xmlns="http://www.w3.org/2000/svg" version="1.1" xmlns:xlink="http://www.w3.org/1999/xlink" xmlns:svgjs="http://svgjs.dev/svgjs" width="1440" height="560" preserveAspectRatio="none" viewBox="0 0 1440 560"><g mask="url(&quot;#SvgjsMask1052&quot;)" fill="none"><rect width="1440" height="560" x="0" y="0" fill="rgba(69, 123, 157, 1)"></rect><path d="M 0,174 C 57.6,165.4 172.8,132.4 288,131 C 403.2,129.6 460.8,166.8 576,167 C 691.2,167.2 748.8,122.8 864,132 C 979.2,141.2 1036.8,237.2 1152,213 C 1267.2,188.8 1382.4,51.4 1440,11L1440 560L0 560z" fill="rgba(24, 74, 126, 0.72)"></path><path d="M 0,433 C 96,429 288,402.8 480,413 C 672,423.2 768,492 960,484 C 1152,476 1344,395.2 1440,373L1440 560L0 560z" fill="rgba(34, 100, 171, 0.76)"></path></g><defs><mask id="SvgjsMask1052"><rect width="1440" height="560" fill="#ffffff"></rect></mask></defs></svg>