<svg xmlns="http://www.w3.org/2000/svg" version="1.1" xmlns:xlink="http://www.w3.org/1999/xlink" xmlns:svgjs="http://svgjs.dev/svgjs" width="1440" height="560" preserveAspectRatio="none" viewBox="0 0 1440 560"><g mask="url(&quot;#SvgjsMask1059&quot;)" fill="none"><rect width="1440" height="560" x="0" y="0" fill="rgba(69, 123, 157, 1)"></rect><path d="M 0,40 C 57.6,83.6 172.8,245.8 288,258 C 403.2,270.2 460.8,118.4 576,101 C 691.2,83.6 748.8,189.2 864,171 C 979.2,152.8 1036.8,-0.2 1152,10 C 1267.2,20.2 1382.4,179.6 1440,222L1440 560L0 560z" fill="rgba(24, 74, 126, 0.72)"></path><path d="M 0,465 C 96,447.4 288,363 480,377 C 672,391 768,527 960,535 C 1152,543 1344,440.6 1440,417L1440 560L0 560z" fill="rgba(34, 100, 171, 0.76)"></path></g><defs><mask id="SvgjsMask1059"><rect width="1440" height="560" fill="#ffffff"></rect></mask></defs></svg>